<svg xmlns="http://www.w3.org/2000/svg" width="50" height="50" viewBox="0 0 50 50"><defs><style>.a{fill:#03a9f4;}.b{fill:#f9fbfe;}</style></defs><g transform="translate(-169 -5092)"><rect class="a" width="50" height="50" rx="25" transform="translate(169 5092)"/><path class="b" d="M21.385,45.86a.468.468,0,0,0-.561-.1,3.993,3.993,0,0,1-.6.216,4.208,4.208,0,0,0,.711-1.368.468.468,0,0,0-.72-.5,9.828,9.828,0,0,1-2.25.88,4.706,4.706,0,0,0-5.9-.455,4.64,4.64,0,0,0-2.02,4.288A11.073,11.073,0,0,1,2.3,44.642a.484.484,0,0,0-.4-.175.467.467,0,0,0-.374.228,4.526,4.526,0,0,0-.516,3.513,5,5,0,0,0,.813,1.7,2.483,2.483,0,0,1-.475-.3.468.468,0,0,0-.762.363,4.836,4.836,0,0,0,2.491,4.152,3.467,3.467,0,0,1-.6-.129.468.468,0,0,0-.561.64,5.1,5.1,0,0,0,3.542,2.9A8.239,8.239,0,0,1,.522,58.544a.461.461,0,0,0-.5.32.468.468,0,0,0,.215.552,14.014,14.014,0,0,0,6.911,1.964,11.869,11.869,0,0,0,6.559-2.006c3.706-2.46,6.016-6.875,5.694-10.827a8.735,8.735,0,0,0,2.033-2.119A.468.468,0,0,0,21.385,45.86Z" transform="translate(183.575 5064.298)"/></g></svg>