<svg xmlns="http://www.w3.org/2000/svg" width="50" height="50" viewBox="0 0 50 50"><defs><style>.a{fill:red;}.b{fill:#f9fbfe;}</style></defs><g transform="translate(-169 -5092)"><rect class="a" width="50" height="50" rx="25" transform="translate(169 5092)"/><g transform="translate(183.001 5110)"><path class="b" d="M-5449.3-6559.015c-.067,0-6.7-.005-8.375-.459a2.684,2.684,0,0,1-1.886-1.887,28.266,28.266,0,0,1-.441-5.147,28.391,28.391,0,0,1,.441-5.148,2.738,2.738,0,0,1,1.886-1.9c1.654-.437,8.308-.442,8.375-.442s6.717.005,8.373.458a2.68,2.68,0,0,1,1.886,1.886,27.068,27.068,0,0,1,.442,5.164,28.289,28.289,0,0,1-.442,5.15,2.673,2.673,0,0,1-1.886,1.886C-5442.582-6559.02-5449.233-6559.015-5449.3-6559.015Zm-2.133-10.7h0v6.417l5.57-3.209-5.57-3.208Z" transform="translate(5460.001 6574)"/></g></g></svg>