<svg xmlns="http://www.w3.org/2000/svg" width="50" height="50" viewBox="0 0 50 50"><defs><style>.a{fill:#2196f3;}.b{fill:#fff;}</style></defs><g transform="translate(-169 -5092)"><rect class="a" width="50" height="50" rx="25" transform="translate(169 5092)"/><g transform="translate(184.001 5106.989)"><circle class="b" cx="2.5" cy="2.5" r="2.5" transform="translate(0.007 0.011)"/><path class="b" d="M.417,170.667h4.17a.417.417,0,0,1,.417.417v12.509a.417.417,0,0,1-.417.417H.417A.417.417,0,0,1,0,183.593V171.084A.417.417,0,0,1,.417,170.667Z" transform="translate(-0.001 -163.987)"/><path class="b" d="M181.007,150.023a6.338,6.338,0,0,0-5.349.887.417.417,0,0,0-.405-.314h-4.17a.417.417,0,0,0-.417.417v12.509a.417.417,0,0,0,.417.417h4.17a.417.417,0,0,0,.417-.417v-8.99a2.19,2.19,0,0,1,2.252-.464,1.962,1.962,0,0,1,1.084,1.948v7.505a.417.417,0,0,0,.417.417h4.17a.417.417,0,0,0,.417-.417v-8.345C183.961,151.751,182.349,150.483,181.007,150.023Z" transform="translate(-163.995 -143.917)"/></g></g></svg>