<svg xmlns="http://www.w3.org/2000/svg" xmlns:xlink="http://www.w3.org/1999/xlink" width="349" height="185" viewBox="0 0 349 185"><defs><style>.a{fill:#fff;stroke:#707070;}.b{clip-path:url(#a);}.c{fill:#d6ecfb;}</style><clipPath id="a"><rect class="a" width="349" height="185" transform="translate(75 1264)"/></clipPath></defs><g class="b" transform="translate(-75 -1264)"><path class="c" d="M-4886.957,49.65q-4.279-4.247-8.554-8.5,3.109-3.137,6.22-6.272-6.217-6.261-12.43-12.525-6.2,6.248-12.4,12.5c2.065,2.1,4.149,4.179,6.215,6.276q-4.407,4.376-8.806,8.756c-.091-.057-.156-.162-.246-.229q-4.281-4.247-8.554-8.5l6.219-6.272q-6.217-6.261-12.429-12.525-6.2,6.248-12.4,12.5c2.065,2.1,4.147,4.179,6.214,6.276q-4.4,4.376-8.8,8.756c-.091-.057-.157-.162-.246-.229q-4.281-4.247-8.554-8.5,3.108-3.137,6.219-6.272-6.217-6.261-12.429-12.525-6.2,6.248-12.4,12.5c2.066,2.1,4.149,4.179,6.215,6.276q-4.406,4.376-8.805,8.756c-.092-.057-.156-.162-.246-.229q-4.281-4.247-8.555-8.5,3.109-3.137,6.22-6.272-6.217-6.261-12.429-12.525-6.2,6.248-12.4,12.5c2.065,2.1,4.148,4.179,6.215,6.276q-4.406,4.376-8.805,8.756c-.092-.057-.156-.162-.247-.229q-4.279-4.247-8.554-8.5,3.11-3.137,6.221-6.272-6.217-6.261-12.429-12.525-6.2,6.248-12.4,12.5c2.065,2.1,4.149,4.179,6.215,6.276q-4.407,4.376-8.806,8.756c-.091-.057-.155-.162-.246-.229q-4.279-4.247-8.554-8.5l6.219-6.272q-6.217-6.261-12.429-12.525-6.2,6.248-12.4,12.5c2.065,2.1,4.147,4.179,6.214,6.276q-4.4,4.376-8.8,8.756c-.091-.057-.157-.162-.246-.229q-4.281-4.247-8.554-8.5,3.108-3.137,6.219-6.272-6.217-6.261-12.429-12.525-6.2,6.248-12.4,12.5c2.066,2.1,4.149,4.179,6.215,6.276q-4.406,4.376-8.805,8.756c-.092-.057-.156-.162-.246-.229q-4.281-4.247-8.555-8.5,3.109-3.137,6.22-6.272-6.217-6.261-12.429-12.525-6.2,6.248-12.4,12.5c2.065,2.1,4.148,4.179,6.215,6.276q-4.4,4.376-8.8,8.756c-.092-.057-.157-.162-.247-.229q-4.279-4.247-8.554-8.5,3.11-3.137,6.221-6.272-6.217-6.261-12.429-12.525-6.2,6.248-12.4,12.5c2.065,2.1,4.149,4.179,6.215,6.276q-4.407,4.376-8.806,8.756c-.091-.057-.155-.162-.246-.229q-4.279-4.247-8.554-8.5l6.219-6.272q-6.217-6.261-12.429-12.525l-12.4,12.5c2.065,2.1,4.147,4.179,6.214,6.276q-4.4,4.376-8.805,8.756c-.09-.057-.156-.162-.246-.229q-4.281-4.247-8.554-8.5,3.109-3.137,6.219-6.272-6.217-6.261-12.429-12.525-6.2,6.248-12.4,12.5c2.066,2.1,4.148,4.179,6.215,6.276q-4.406,4.376-8.805,8.756c-.092-.057-.156-.162-.246-.229q-4.281-4.247-8.554-8.5,3.108-3.137,6.219-6.272-7.442-7.5-14.88-15H-5238l1.916-1.93-1.915-1.93h3.83q7.364-7.42,14.726-14.841-3.034-3.017-6.066-6.032l.191-.193-.2-.2q3.037-3.016,6.072-6.035-7.367-7.419-14.729-14.842H-5238l1.916-1.929-1.915-1.93h3.83q7.364-7.419,14.727-14.841-3.034-3.017-6.067-6.032l.19-.192-.194-.2q3.037-3.016,6.071-6.036-7.367-7.419-14.728-14.842H-5238l1.916-1.93-1.915-1.93h3.83q7.364-7.42,14.726-14.841-3.034-3.017-6.066-6.032l.191-.193-.2-.2q3.037-3.016,6.072-6.035-7.367-7.418-14.729-14.842H-5238l1.916-1.93-1.915-1.93h3.83q7.364-7.419,14.727-14.841-3.034-3.017-6.067-6.032l.19-.192-.194-.2q3.037-3.017,6.072-6.037-7.367-7.419-14.729-14.842H-5238l1.916-1.929-1.915-1.93h3.83q7.436-7.492,14.871-14.987c-2.065-2.1-4.149-4.179-6.215-6.276q4.406-4.376,8.805-8.756c.092.058.156.162.247.229q4.279,4.249,8.554,8.5-3.109,3.137-6.219,6.272,6.216,6.261,12.429,12.525l12.4-12.5c-2.065-2.1-4.148-4.179-6.214-6.276q4.406-4.376,8.805-8.756c.091.058.156.162.246.229q4.281,4.249,8.554,8.5l-6.219,6.272q6.217,6.261,12.429,12.525l12.4-12.5c-2.065-2.1-4.147-4.179-6.214-6.276q4.4-4.376,8.8-8.756c.091.058.157.162.246.229q4.28,4.249,8.554,8.5-3.108,3.137-6.219,6.272,6.217,6.261,12.429,12.525l12.4-12.5c-2.066-2.1-4.149-4.179-6.215-6.276q4.4-4.376,8.805-8.756c.092.058.156.162.246.229q4.281,4.249,8.555,8.5-3.11,3.137-6.221,6.272,6.217,6.261,12.429,12.525l12.4-12.5c-2.065-2.1-4.148-4.179-6.215-6.276q4.406-4.376,8.805-8.756c.092.058.156.162.247.229q4.279,4.249,8.554,8.5-3.109,3.137-6.22,6.272,6.217,6.261,12.43,12.525l12.4-12.5c-2.065-2.1-4.149-4.179-6.215-6.276q4.407-4.376,8.806-8.756c.091.058.156.162.246.229q4.281,4.249,8.554,8.5l-6.219,6.272q6.217,6.261,12.429,12.525,6.2-6.248,12.4-12.5c-2.065-2.1-4.147-4.179-6.214-6.276q4.4-4.376,8.8-8.756c.091.058.157.162.246.229q4.281,4.249,8.554,8.5-3.108,3.137-6.219,6.272,6.217,6.261,12.429,12.525l12.4-12.5c-2.066-2.1-4.149-4.179-6.215-6.276q4.406-4.376,8.805-8.756c.092.058.156.162.246.229q4.281,4.249,8.555,8.5-3.11,3.137-6.22,6.272,6.217,6.261,12.429,12.525l12.4-12.5c-2.065-2.1-4.148-4.179-6.215-6.276q4.406-4.376,8.805-8.756c.092.058.156.162.247.229q4.279,4.249,8.554,8.5-3.109,3.137-6.22,6.272,6.217,6.261,12.43,12.525l12.4-12.5c-2.065-2.1-4.149-4.179-6.215-6.276q4.407-4.376,8.806-8.756c.091.058.155.162.246.229q4.28,4.249,8.554,8.5l-6.219,6.272q6.217,6.261,12.429,12.525,6.2-6.248,12.4-12.5c-2.065-2.1-4.147-4.179-6.214-6.276q4.4-4.376,8.8-8.756c.091.058.157.162.246.229q4.281,4.249,8.554,8.5-3.108,3.137-6.219,6.272,6.217,6.261,12.429,12.525l12.4-12.5c-2.066-2.1-4.149-4.179-6.215-6.276q4.406-4.376,8.805-8.756c.092.058.156.162.246.229q4.281,4.249,8.555,8.5-3.109,3.137-6.22,6.272,7.442,7.5,14.88,15h3.83l-1.916,1.93,1.914,1.93h-3.829q-7.365,7.42-14.727,14.842,3.034,3.017,6.067,6.032l-.191.193.194.2q-3.037,3.016-6.072,6.035,7.367,7.418,14.729,14.842h3.83l-1.916,1.93,1.915,1.93h-3.83q-7.364,7.419-14.727,14.841,3.034,3.017,6.068,6.032l-.191.193.194.2q-3.037,3.017-6.072,6.037,7.367,7.418,14.728,14.841h3.831l-1.916,1.93,1.915,1.931-3.83,0q-7.364,7.42-14.726,14.841,3.034,3.017,6.067,6.033l-.191.193.194.2q-3.037,3.016-6.071,6.036,7.367,7.419,14.728,14.842h3.83l-1.916,1.93,1.914,1.93h-3.829q-7.365,7.42-14.727,14.841,3.034,3.017,6.067,6.032l-.191.193.194.2q-3.037,3.015-6.072,6.035,7.367,7.419,14.729,14.842h3.83l-1.916,1.929,1.914,1.93-3.829,0q-7.437,7.493-14.872,14.988c2.065,2.1,4.148,4.179,6.215,6.276q-4.406,4.376-8.805,8.756C-4886.8,49.822-4886.866,49.717-4886.957,49.65Zm-2.955-8.62,0,.026c1.06,1.052,2.127,2.1,3.184,3.148q1.623-1.587,3.233-3.188-1.6-1.648-3.205-3.293Q-4888.3,39.38-4889.912,41.03Zm-30,0,.005.026c1.058,1.052,2.125,2.1,3.184,3.148,1.082-1.058,2.156-2.124,3.232-3.188q-1.6-1.648-3.2-3.293Q-4918.3,39.38-4919.913,41.03Zm-30,0,.005.026c1.058,1.052,2.126,2.1,3.184,3.148q1.622-1.587,3.231-3.188-1.6-1.648-3.2-3.293Q-4948.3,39.38-4949.913,41.03Zm-30,0,.005.026c1.058,1.052,2.125,2.1,3.183,3.148q1.625-1.587,3.232-3.188-1.6-1.648-3.2-3.293Q-4978.3,39.38-4979.912,41.03Zm-30,0,0,.026c1.06,1.052,2.127,2.1,3.184,3.148q1.623-1.587,3.233-3.188-1.6-1.648-3.205-3.293Q-5008.3,39.38-5009.912,41.03Zm-30,0,0,.026c1.059,1.052,2.126,2.1,3.184,3.148,1.082-1.058,2.156-2.124,3.232-3.188q-1.6-1.648-3.2-3.293Q-5038.3,39.38-5039.913,41.03Zm-30,0,.005.026c1.058,1.052,2.125,2.1,3.184,3.148q1.622-1.587,3.231-3.188-1.6-1.648-3.2-3.293Q-5068.3,39.38-5069.913,41.03Zm-30,0,.005.026c1.058,1.052,2.125,2.1,3.184,3.148q1.623-1.587,3.231-3.188-1.6-1.648-3.2-3.293Q-5098.3,39.38-5099.912,41.03Zm-30,0,0,.026c1.06,1.052,2.127,2.1,3.184,3.148q1.623-1.587,3.232-3.188-1.6-1.648-3.2-3.293Q-5128.3,39.38-5129.912,41.03Zm-30,0,0,.026c1.06,1.052,2.127,2.1,3.184,3.148,1.082-1.058,2.156-2.124,3.232-3.188q-1.6-1.648-3.205-3.293Q-5158.3,39.38-5159.912,41.03Zm-30,0,.005.026c1.058,1.052,2.125,2.1,3.184,3.148q1.622-1.587,3.231-3.188-1.6-1.648-3.2-3.293Q-5188.3,39.38-5189.913,41.03Zm-30,0,.005.026c1.058,1.052,2.125,2.1,3.184,3.148q1.623-1.587,3.231-3.188-1.6-1.648-3.2-3.293Q-5218.3,39.38-5219.912,41.03ZM-4898.8,19.988q5.985,5.831,11.962,11.664c.043.028.07.1.127.093q6.048-5.888,12.087-11.782-3.943,0-7.889,0v-.1h-.006V15.9c1.576-.009,3.155-.008,4.733-.007q1.578,0,3.158,0-5.985-5.829-11.964-11.664c-.043-.028-.068-.1-.126-.093q-6.048,5.888-12.089,11.782,3.946,0,7.89,0v.1h.006q0,1.982,0,3.962c-1.59.009-3.184.008-4.776.005h-1.558Zm-30,0q5.985,5.831,11.963,11.664c.043.028.069.1.127.093q6.045-5.888,12.087-11.782-3.946,0-7.89,0v-.1h-.005V15.9c1.576-.009,3.155-.008,4.734-.007q1.578,0,3.156,0-5.982-5.829-11.962-11.664c-.043-.028-.068-.1-.126-.093q-6.048,5.888-12.088,11.782,3.946,0,7.89,0v.1h.007q0,1.982,0,3.962c-1.591.009-3.184.008-4.777.005h-1.558Zm-30,0q5.982,5.831,11.962,11.664c.043.028.068.1.126.093q6.048-5.888,12.088-11.782-3.946,0-7.89,0v-.1h-.007q0-1.98,0-3.962c1.576-.009,3.155-.008,4.734-.007q1.579,0,3.158,0-5.985-5.829-11.963-11.664c-.043-.028-.069-.1-.127-.093q-6.045,5.888-12.087,11.782,3.944,0,7.89,0v.1h.005v3.962c-1.591.009-3.184.008-4.776.005h-1.558Zm-30,0q5.985,5.831,11.964,11.664c.043.028.068.1.126.093q6.048-5.888,12.089-11.782-3.946,0-7.89,0v-.1h-.006q0-1.98,0-3.962c1.576-.009,3.155-.008,4.734-.007q1.577,0,3.157,0-5.985-5.829-11.962-11.664c-.043-.028-.07-.1-.127-.093q-6.048,5.888-12.087,11.782,3.943,0,7.889,0v.1h.006q0,1.982,0,3.962c-1.59.009-3.184.008-4.775.005h-1.559Zm-30,0q5.985,5.831,11.962,11.664c.043.028.07.1.127.093q6.048-5.888,12.087-11.782-3.943,0-7.889,0v-.1h-.006q0-1.98,0-3.962c1.576-.009,3.155-.008,4.733-.007q1.578,0,3.158,0-5.985-5.829-11.964-11.664c-.043-.028-.068-.1-.126-.093q-6.048,5.888-12.089,11.782,3.946,0,7.89,0v.1h.006q0,1.982,0,3.962c-1.591.009-3.184.008-4.776.005h-1.558Zm-30,0q5.985,5.831,11.963,11.664c.043.028.069.1.127.093q6.045-5.888,12.087-11.782-3.944,0-7.89,0v-.1h-.005V15.9c1.576-.009,3.155-.008,4.734-.007q1.578,0,3.156,0-5.982-5.829-11.962-11.664c-.043-.028-.068-.1-.126-.093q-6.048,5.888-12.089,11.782,3.946,0,7.89,0v.1h.007q0,1.982,0,3.962c-1.591.009-3.184.008-4.777.005h-1.558Zm-30,0q5.982,5.831,11.962,11.664c.043.028.068.1.127.093q6.046-5.888,12.087-11.782-3.946,0-7.89,0v-.1h-.007q0-1.98,0-3.962c1.576-.009,3.155-.008,4.734-.007q1.579,0,3.158,0-5.985-5.829-11.963-11.664c-.043-.028-.068-.1-.127-.093q-6.045,5.888-12.087,11.782,3.946,0,7.89,0v.1h.005v3.962c-1.591.009-3.184.008-4.776.005h-1.558Zm-30,0q5.985,5.831,11.964,11.664c.043.028.068.1.126.093q6.048-5.888,12.089-11.782-3.946,0-7.89,0v-.1h-.006q0-1.98,0-3.962c1.576-.009,3.155-.008,4.734-.007q1.577,0,3.157,0-5.985-5.829-11.962-11.664c-.043-.028-.07-.1-.127-.093q-6.048,5.888-12.087,11.782,3.943,0,7.889,0v.1h.006v3.962c-1.59.009-3.184.008-4.776.005h-1.558Zm-30,0q5.984,5.831,11.962,11.664c.044.028.069.1.127.093q6.048-5.888,12.087-11.782-3.943,0-7.889,0v-.1h-.007q0-1.98,0-3.962c1.576-.009,3.155-.008,4.734-.007q1.578,0,3.158,0-5.985-5.829-11.964-11.664c-.043-.028-.068-.1-.126-.093q-6.048,5.888-12.088,11.782,3.946,0,7.89,0v.1h.006q0,1.982,0,3.962c-1.591.009-3.184.008-4.776.005h-1.558Zm-30,0q5.985,5.831,11.962,11.664c.043.028.07.1.128.093q6.045-5.888,12.087-11.782-3.944,0-7.89,0v-.1h-.005V15.9c1.576-.009,3.155-.008,4.734-.007q1.578,0,3.156,0-5.982-5.829-11.962-11.664c-.043-.028-.068-.1-.126-.093q-6.048,5.888-12.089,11.782,3.946,0,7.89,0v.1h.007q0,1.982,0,3.962c-1.591.009-3.184.008-4.776.005h-1.559Zm-30,0q5.982,5.831,11.962,11.664c.043.028.068.1.127.093q6.046-5.888,12.087-11.782-3.946,0-7.89,0c0-.035,0-.069,0-.1h-.006q0-1.98,0-3.962c1.576-.009,3.155-.008,4.734-.007q1.579,0,3.158,0-5.983-5.829-11.963-11.664c-.043-.028-.068-.1-.127-.093q-6.045,5.888-12.087,11.782,3.946,0,7.89,0v.1h.006q0,1.982,0,3.962c-1.592.009-3.185.008-4.777.005h-1.558Zm-30,0q5.985,5.831,11.964,11.664c.043.028.068.1.126.093q6.048-5.888,12.089-11.782-3.946,0-7.89,0v-.1h-.006q0-1.98,0-3.962c1.576-.009,3.155-.008,4.733-.007q1.578,0,3.158,0-5.985-5.829-11.962-11.664c-.043-.028-.07-.1-.127-.093q-6.048,5.888-12.087,11.782,3.943,0,7.889,0v.1h.006v3.962c-1.59.009-3.184.008-4.776.005h-1.558Zm267.1-6.458,12.255-12.351q-3.033-3.017-6.066-6.032l.191-.193-.195-.2q3.038-3.016,6.072-6.035-6.141-6.184-12.278-12.372-6.127,6.176-12.255,12.351,3.033,3.017,6.067,6.032l-.191.193.194.2q-3.037,3.015-6.072,6.035Q-4967.836,7.342-4961.7,13.53Zm60,0q6.127-6.176,12.255-12.351-3.033-3.017-6.067-6.032l.191-.193-.194-.2q3.037-3.017,6.071-6.036-6.141-6.184-12.278-12.371L-4913.974-11.3q3.033,3.017,6.066,6.032l-.191.193.195.2q-3.038,3.015-6.072,6.035Q-4907.835,7.342-4901.7,13.53Zm-120,0q6.127-6.176,12.255-12.351-3.033-3.017-6.067-6.032l.192-.193-.194-.2q3.037-3.016,6.071-6.035-6.141-6.184-12.277-12.371L-5033.974-11.3q3.033,3.017,6.066,6.032l-.191.193.195.2q-3.038,3.015-6.072,6.035Q-5027.835,7.342-5021.7,13.53Zm-120,0,12.255-12.351q-3.033-3.017-6.067-6.032l.192-.193-.194-.2q3.037-3.016,6.071-6.035-6.141-6.184-12.278-12.371L-5153.974-11.3q3.033,3.017,6.066,6.032l-.191.193.195.2q-3.038,3.015-6.072,6.035Q-5147.835,7.342-5141.7,13.53Zm210,0,12.254-12.351q-3.033-3.017-6.066-6.032l.192-.193-.194-.2q3.037-3.016,6.07-6.035-6.141-6.184-12.277-12.372L-4943.974-11.3q3.033,3.017,6.066,6.032l-.192.193.194.2q-3.037,3.015-6.071,6.035Q-4937.835,7.342-4931.7,13.53Zm-120,0,12.254-12.352q-3.032-3.017-6.066-6.031l.192-.193-.194-.2q3.037-3.016,6.07-6.035-6.141-6.184-12.277-12.372L-5063.974-11.3q3.033,3.017,6.066,6.032l-.192.193.194.2q-3.037,3.015-6.071,6.035Q-5057.835,7.342-5051.7,13.53Zm-120,0,12.254-12.352q-3.032-3.017-6.066-6.031l.192-.193-.194-.2q3.037-3.016,6.07-6.035-6.141-6.184-12.277-12.371L-5183.974-11.3q3.033,3.017,6.066,6.032l-.192.193.194.2q-3.037,3.015-6.071,6.035Q-5177.835,7.342-5171.7,13.53Zm90,0,12.254-12.351q-3.033-3.017-6.066-6.032l.191-.193-.195-.2q3.038-3.016,6.072-6.035-6.141-6.184-12.278-12.372-6.127,6.176-12.255,12.351,3.033,3.017,6.067,6.032l-.191.193.194.2q-3.037,3.015-6.071,6.036Q-5087.835,7.342-5081.7,13.53Zm-120,0,12.254-12.351q-3.034-3.017-6.066-6.032l.191-.193-.194-.2q3.037-3.016,6.071-6.035-6.141-6.184-12.278-12.372-6.127,6.176-12.255,12.351,3.033,3.017,6.067,6.032l-.191.193.194.2q-3.037,3.015-6.071,6.035Q-5207.836,7.342-5201.7,13.53Zm210,0,12.255-12.351q-3.034-3.017-6.067-6.032l.191-.193-.194-.2q3.037-3.016,6.072-6.035-6.141-6.184-12.278-12.371L-5003.975-11.3q3.034,3.017,6.067,6.032l-.192.193.195.2q-3.037,3.015-6.072,6.035Q-4997.835,7.342-4991.7,13.529Zm-120,0,12.255-12.351q-3.034-3.017-6.067-6.032l.191-.193-.194-.2q3.037-3.016,6.072-6.035-6.141-6.184-12.278-12.371L-5123.975-11.3q3.034,3.017,6.067,6.032l-.192.193.194.2q-3.037,3.015-6.071,6.035Q-5117.835,7.342-5111.7,13.529Zm224.976-15.375q1.57-1.616,3.142-3.229-1.556-1.6-3.116-3.2-1.568,1.618-3.141,3.231Q-4888.281-3.445-4886.723-1.846Zm-30,0q1.57-1.616,3.142-3.229-1.556-1.6-3.116-3.2-1.568,1.618-3.142,3.23Q-4918.281-3.445-4916.722-1.846Zm-30,0q1.568-1.616,3.142-3.229-1.556-1.6-3.115-3.2-1.57,1.618-3.142,3.231Q-4948.281-3.445-4946.722-1.846Zm-30,0q1.568-1.616,3.141-3.229-1.557-1.6-3.115-3.2-1.57,1.618-3.142,3.231Q-4978.281-3.445-4976.722-1.846Zm-30,0q1.57-1.616,3.142-3.229-1.556-1.6-3.116-3.2-1.568,1.618-3.141,3.231Q-5008.28-3.445-5006.723-1.846Zm-30,0q1.57-1.616,3.142-3.229-1.557-1.6-3.116-3.2-1.568,1.618-3.142,3.23Q-5038.281-3.445-5036.722-1.846Zm-30,0q1.568-1.616,3.142-3.229-1.556-1.6-3.115-3.2-1.57,1.618-3.142,3.231Q-5068.281-3.445-5066.722-1.846Zm-30,0q1.568-1.616,3.141-3.229-1.556-1.6-3.114-3.2-1.57,1.618-3.142,3.231Q-5098.281-3.445-5096.722-1.846Zm-30,0q1.57-1.616,3.142-3.229-1.556-1.6-3.116-3.2-1.568,1.618-3.141,3.231Q-5128.28-3.445-5126.723-1.846Zm-30,0q1.57-1.616,3.142-3.229-1.557-1.6-3.116-3.2-1.567,1.618-3.141,3.231Q-5158.281-3.445-5156.722-1.846Zm-30,0q1.567-1.616,3.142-3.229-1.557-1.6-3.115-3.2-1.57,1.618-3.142,3.23Q-5188.282-3.445-5186.722-1.846Zm-30,0q1.568-1.616,3.141-3.229-1.556-1.6-3.114-3.2-1.57,1.618-3.142,3.231Q-5218.281-3.445-5216.722-1.846ZM-4898.8-26.011q5.985,5.829,11.962,11.663c.043.029.07.1.127.095q6.048-5.888,12.087-11.782-3.943,0-7.889,0v-.105h-.006V-30.1c1.589-.011,3.183-.008,4.774-.007q1.558,0,3.117,0-5.985-5.831-11.964-11.664c-.043-.029-.068-.1-.126-.093q-6.048,5.888-12.089,11.781,3.946,0,7.89,0v.1h.006q0,1.98,0,3.962c-1.578.008-3.156.007-4.735.005h-1.578Zm-30,0q5.985,5.829,11.963,11.663c.043.029.069.1.127.095q6.045-5.888,12.087-11.782-3.946,0-7.89,0v-.105h-.005V-30.1c1.589-.011,3.183-.008,4.774-.007q1.558,0,3.116,0-5.982-5.831-11.962-11.664c-.043-.029-.068-.1-.126-.093q-6.048,5.888-12.088,11.781,3.946,0,7.89,0v.1h.007q0,1.98,0,3.962c-1.578.008-3.156.007-4.735.005h-1.579Zm-30,0q5.982,5.829,11.962,11.663c.043.029.068.1.126.095q6.048-5.888,12.088-11.782-3.946,0-7.89,0v-.105h-.007q0-1.98,0-3.961c1.589-.011,3.183-.008,4.776-.007q1.558,0,3.116,0-5.985-5.831-11.963-11.664c-.043-.029-.069-.1-.127-.093q-6.045,5.888-12.087,11.781,3.944,0,7.89,0v.1h.005v3.962c-1.578.008-3.156.007-4.734.005h-1.579Zm-30,0q5.985,5.829,11.964,11.663c.043.029.068.1.126.095q6.048-5.888,12.089-11.782-3.946,0-7.89,0v-.105h-.006q0-1.98,0-3.961c1.589-.011,3.183-.008,4.774-.007q1.558,0,3.117,0-5.985-5.831-11.962-11.664c-.043-.029-.07-.1-.127-.093q-6.048,5.888-12.087,11.781,3.943,0,7.889,0v.1h.006q0,1.98,0,3.962c-1.577.008-3.156.007-4.735.005h-1.578Zm-30,0q5.985,5.829,11.962,11.663c.043.029.07.1.127.095q6.048-5.888,12.087-11.782-3.943,0-7.889,0v-.105h-.006q0-1.98,0-3.961c1.589-.011,3.182-.008,4.774-.007q1.558,0,3.117,0-5.985-5.831-11.964-11.664c-.043-.029-.068-.1-.126-.093q-6.048,5.888-12.089,11.781,3.946,0,7.89,0v.1h.006q0,1.98,0,3.962c-1.578.008-3.156.007-4.735.005h-1.578Zm-30,0q5.985,5.829,11.963,11.663c.043.029.069.1.127.095q6.045-5.888,12.087-11.782-3.944,0-7.89,0v-.105h-.005V-30.1c1.589-.011,3.183-.008,4.774-.007q1.558,0,3.116,0-5.982-5.831-11.962-11.664c-.043-.029-.068-.1-.126-.093q-6.048,5.888-12.089,11.781,3.946,0,7.89,0v.1h.007q0,1.98,0,3.962c-1.578.008-3.156.007-4.735.005h-1.579Zm-30,0q5.982,5.829,11.962,11.663c.043.029.068.1.127.095q6.046-5.888,12.087-11.782-3.946,0-7.89,0v-.105h-.007q0-1.98,0-3.961c1.589-.011,3.183-.008,4.776-.007q1.558,0,3.116,0-5.985-5.831-11.963-11.664c-.043-.029-.068-.1-.127-.093q-6.045,5.888-12.087,11.781,3.946,0,7.89,0v.1h.005v3.962c-1.578.008-3.156.007-4.734.005h-1.579Zm-30,0q5.985,5.829,11.964,11.663c.043.029.068.1.126.095q6.048-5.888,12.089-11.782-3.946,0-7.89,0v-.105h-.006q0-1.98,0-3.961c1.589-.011,3.183-.008,4.774-.007q1.558,0,3.117,0-5.985-5.831-11.962-11.664c-.043-.029-.07-.1-.127-.093q-6.048,5.888-12.087,11.781,3.943,0,7.889,0v.1h.006v3.962c-1.577.008-3.156.007-4.735.005h-1.578Zm-30,0q5.984,5.829,11.962,11.663c.044.029.069.1.127.095q6.048-5.888,12.087-11.782-3.943,0-7.889,0v-.105h-.007q0-1.98,0-3.961c1.589-.011,3.183-.008,4.775-.007q1.557,0,3.117,0-5.985-5.831-11.964-11.664c-.043-.029-.068-.1-.126-.093q-6.048,5.888-12.088,11.781,3.946,0,7.89,0v.1h.006q0,1.98,0,3.962c-1.578.008-3.156.007-4.735.005h-1.578Zm-30,0q5.985,5.829,11.962,11.663c.043.029.07.1.128.095q6.045-5.888,12.087-11.782-3.944,0-7.89,0v-.105h-.005V-30.1c1.589-.011,3.183-.008,4.774-.007q1.558,0,3.116,0-5.982-5.831-11.962-11.664c-.043-.029-.068-.1-.126-.093q-6.048,5.888-12.089,11.781,3.946,0,7.89,0v.1h.007q0,1.98,0,3.962c-1.578.008-3.156.007-4.735.005h-1.578Zm-30,0q5.982,5.829,11.962,11.663c.043.029.068.1.127.095q6.046-5.888,12.087-11.782-3.946,0-7.89,0c0-.035,0-.07,0-.105h-.006q0-1.98,0-3.961c1.589-.011,3.183-.008,4.776-.007q1.558,0,3.116,0-5.983-5.831-11.963-11.664c-.043-.029-.068-.1-.127-.093q-6.045,5.888-12.087,11.781,3.946,0,7.89,0v.1h.006q0,1.98,0,3.962c-1.577.008-3.157.007-4.735.005h-1.579Zm-30,0q5.985,5.829,11.964,11.663c.043.029.068.1.126.095q6.048-5.888,12.089-11.782-3.946,0-7.89,0v-.105h-.006q0-1.98,0-3.961c1.589-.011,3.183-.008,4.774-.007q1.558,0,3.117,0-5.985-5.831-11.962-11.664c-.043-.029-.07-.1-.127-.093q-6.048,5.888-12.087,11.781,3.943,0,7.889,0v.1h.006v3.962c-1.577.008-3.156.007-4.735.005h-1.578Zm267.1-6.459,12.255-12.351q-3.034-3.017-6.066-6.032l.19-.192-.194-.2q3.038-3.016,6.071-6.035-6.141-6.185-12.277-12.373L-4973.975-57.3q3.033,3.017,6.067,6.033l-.191.193.194.2q-3.037,3.016-6.071,6.036Q-4967.835-38.657-4961.7-32.47Zm60,0q6.128-6.175,12.256-12.351-3.033-3.017-6.067-6.033l.191-.193-.194-.2q3.037-3.016,6.071-6.036-6.141-6.185-12.278-12.372L-4913.974-57.3q3.033,3.017,6.066,6.033l-.19.192.194.2q-3.038,3.016-6.071,6.035Q-4907.835-38.657-4901.7-32.47Zm-120,0q6.128-6.175,12.256-12.351-3.033-3.017-6.068-6.033l.191-.193-.194-.2q3.037-3.016,6.071-6.036-6.141-6.185-12.278-12.372L-5033.974-57.3q3.033,3.017,6.066,6.033l-.19.192.194.2q-3.038,3.016-6.071,6.035Q-5027.835-38.657-5021.7-32.47Zm-120,0q6.128-6.175,12.256-12.351-3.033-3.017-6.068-6.033l.191-.193-.194-.2q3.037-3.016,6.071-6.036-6.141-6.185-12.278-12.372L-5153.974-57.3q3.033,3.017,6.066,6.033l-.19.192.194.2q-3.038,3.016-6.072,6.035Q-5147.835-38.657-5141.7-32.47Zm210,0,12.255-12.351q-3.033-3.016-6.067-6.032l.191-.193-.194-.2q3.037-3.016,6.07-6.035-6.141-6.185-12.278-12.372L-4943.974-57.3q3.033,3.017,6.066,6.033l-.191.193.194.2q-3.037,3.016-6.07,6.035Q-4937.834-38.657-4931.7-32.47Zm-120,0q6.128-6.176,12.255-12.352-3.032-3.016-6.067-6.032l.191-.193-.193-.2q3.037-3.016,6.07-6.035-6.141-6.185-12.278-12.372L-5063.974-57.3q3.033,3.017,6.066,6.033l-.191.193.194.2q-3.037,3.016-6.07,6.035Q-5057.835-38.657-5051.7-32.47Zm-120,0q6.128-6.176,12.255-12.352-3.033-3.016-6.067-6.032l.191-.193-.193-.2q3.037-3.016,6.07-6.035-6.141-6.185-12.277-12.372L-5183.974-57.3q3.033,3.017,6.066,6.033l-.191.193.194.2q-3.037,3.016-6.07,6.035Q-5177.835-38.657-5171.7-32.47Zm90,0,12.255-12.351q-3.034-3.017-6.066-6.032l.19-.192-.194-.2q3.038-3.016,6.071-6.035-6.141-6.185-12.277-12.373L-5093.975-57.3q3.033,3.017,6.067,6.033l-.191.193.194.2q-3.037,3.016-6.071,6.036Q-5087.835-38.657-5081.7-32.47Zm-120,0,12.255-12.351q-3.034-3.017-6.066-6.032l.191-.193-.194-.2q3.037-3.016,6.07-6.035-6.141-6.185-12.277-12.373L-5213.975-57.3q3.033,3.017,6.067,6.033l-.191.193.194.2q-3.037,3.016-6.07,6.035Q-5207.836-38.657-5201.7-32.47Zm210,0q6.128-6.175,12.256-12.351-3.034-3.017-6.068-6.032l.191-.193-.194-.2q3.037-3.016,6.071-6.036-6.141-6.185-12.277-12.372L-5003.975-57.3q3.034,3.017,6.067,6.033l-.191.193.194.2q-3.037,3.016-6.071,6.036Q-4997.835-38.657-4991.7-32.47Zm-120,0q6.128-6.175,12.256-12.351-3.034-3.017-6.068-6.032l.191-.193-.194-.2q3.037-3.016,6.071-6.036-6.141-6.185-12.277-12.372L-5123.975-57.3q3.034,3.017,6.067,6.033l-.191.193.193.2q-3.037,3.016-6.071,6.036Q-5117.835-38.657-5111.7-32.47Zm224.976-15.375q1.57-1.618,3.142-3.23-1.556-1.6-3.115-3.2-1.568,1.618-3.141,3.229Q-4888.281-49.446-4886.723-47.845Zm-30,0q1.57-1.618,3.142-3.23-1.556-1.6-3.115-3.2-1.568,1.618-3.142,3.229Q-4918.281-49.446-4916.722-47.845Zm-30,0q1.567-1.617,3.141-3.229-1.556-1.6-3.115-3.2-1.57,1.618-3.142,3.229Q-4948.281-49.445-4946.722-47.845Zm-30,0q1.567-1.618,3.14-3.23-1.556-1.6-3.114-3.2-1.57,1.618-3.142,3.229Q-4978.281-49.445-4976.722-47.845Zm-30,0q1.57-1.618,3.142-3.23-1.556-1.6-3.115-3.2-1.568,1.618-3.141,3.229Q-5008.28-49.446-5006.723-47.845Zm-30,0q1.57-1.618,3.142-3.23-1.556-1.6-3.115-3.2-1.568,1.618-3.142,3.229Q-5038.281-49.446-5036.722-47.845Zm-30,0q1.567-1.617,3.141-3.229-1.556-1.6-3.115-3.2-1.57,1.618-3.142,3.229Q-5068.281-49.445-5066.722-47.845Zm-30,0q1.567-1.618,3.14-3.23-1.556-1.6-3.114-3.2-1.57,1.618-3.142,3.229Q-5098.281-49.445-5096.722-47.845Zm-30,0q1.57-1.618,3.142-3.23-1.556-1.6-3.115-3.2-1.568,1.618-3.141,3.229Q-5128.28-49.446-5126.723-47.845Zm-30,0q1.569-1.618,3.141-3.23-1.556-1.6-3.115-3.2-1.567,1.618-3.141,3.229Q-5158.281-49.446-5156.722-47.845Zm-30,0q1.567-1.617,3.141-3.229-1.556-1.6-3.115-3.2-1.57,1.618-3.142,3.229Q-5188.282-49.446-5186.722-47.845Zm-30,0q1.567-1.618,3.14-3.23-1.556-1.6-3.114-3.2-1.57,1.618-3.142,3.229Q-5218.281-49.445-5216.722-47.845ZM-4898.8-72.012q5.985,5.829,11.962,11.664c.043.028.07.1.127.093q6.048-5.888,12.087-11.782-3.943,0-7.889,0v-.1h-.006V-76.1c1.589-.011,3.183-.008,4.774-.007q1.558,0,3.117,0-5.985-5.829-11.964-11.664c-.043-.028-.068-.1-.126-.093q-6.048,5.888-12.089,11.782,3.946,0,7.89,0v.1h.006q0,1.982,0,3.962c-1.59.009-3.184.008-4.776.005h-1.558Zm-30,0q5.985,5.829,11.963,11.664c.043.028.069.1.127.093q6.045-5.888,12.087-11.782-3.946,0-7.89,0v-.1h-.005V-76.1c1.589-.011,3.183-.008,4.774-.007q1.558,0,3.116,0-5.982-5.829-11.962-11.664c-.043-.028-.068-.1-.126-.093q-6.048,5.888-12.088,11.782,3.946,0,7.89,0v.1h.007q0,1.982,0,3.962c-1.591.009-3.184.008-4.777.005h-1.558Zm-30,0q5.982,5.829,11.962,11.664c.043.028.068.1.126.093q6.048-5.888,12.088-11.782-3.946,0-7.89,0v-.1h-.007q0-1.982,0-3.962c1.589-.011,3.183-.008,4.776-.007q1.558,0,3.116,0-5.985-5.829-11.963-11.664c-.043-.028-.069-.1-.127-.093q-6.045,5.888-12.087,11.782,3.944,0,7.89,0v.1h.005v3.962c-1.591.009-3.184.008-4.776.005h-1.558Zm-30,0q5.985,5.829,11.964,11.664c.043.028.068.1.126.093q6.048-5.888,12.089-11.782-3.946,0-7.89,0v-.1h-.006q0-1.982,0-3.962c1.589-.011,3.183-.008,4.774-.007q1.558,0,3.117,0-5.985-5.829-11.962-11.664c-.043-.028-.07-.1-.127-.093q-6.048,5.888-12.087,11.782,3.943,0,7.889,0v.1h.006q0,1.982,0,3.962c-1.59.009-3.184.008-4.775.005h-1.559Zm-30,0q5.985,5.829,11.962,11.664c.043.028.07.1.127.093q6.048-5.888,12.087-11.782-3.943,0-7.889,0v-.1h-.006q0-1.982,0-3.962c1.589-.011,3.182-.008,4.774-.007q1.558,0,3.117,0-5.985-5.829-11.964-11.664c-.043-.028-.068-.1-.126-.093q-6.048,5.888-12.089,11.782,3.946,0,7.89,0v.1h.006q0,1.982,0,3.962c-1.591.009-3.184.008-4.776.005h-1.558Zm-30,0q5.985,5.829,11.963,11.664c.043.028.069.1.127.093q6.045-5.888,12.087-11.782-3.944,0-7.89,0v-.1h-.005V-76.1c1.589-.011,3.183-.008,4.774-.007q1.558,0,3.116,0-5.982-5.829-11.962-11.664c-.043-.028-.068-.1-.126-.093q-6.048,5.888-12.089,11.782,3.946,0,7.89,0v.1h.007q0,1.982,0,3.962c-1.591.009-3.184.008-4.777.005h-1.558Zm-30,0q5.982,5.829,11.962,11.664c.043.028.068.1.127.093q6.046-5.888,12.087-11.782-3.946,0-7.89,0v-.1h-.007q0-1.982,0-3.962c1.589-.011,3.183-.008,4.776-.007q1.558,0,3.116,0-5.985-5.829-11.963-11.664c-.043-.028-.068-.1-.127-.093q-6.045,5.888-12.087,11.782,3.946,0,7.89,0v.1h.005v3.962c-1.591.009-3.184.008-4.776.005h-1.558Zm-30,0q5.985,5.829,11.964,11.664c.043.028.068.1.126.093q6.048-5.888,12.089-11.782-3.946,0-7.89,0v-.1h-.006q0-1.982,0-3.962c1.589-.011,3.183-.008,4.774-.007q1.558,0,3.117,0-5.985-5.829-11.962-11.664c-.043-.028-.07-.1-.127-.093q-6.048,5.888-12.087,11.782,3.943,0,7.889,0v.1h.006v3.962c-1.59.009-3.184.008-4.776.005h-1.558Zm-30,0q5.984,5.829,11.962,11.664c.044.028.069.1.127.093q6.048-5.888,12.087-11.782-3.943,0-7.889,0v-.1h-.007q0-1.982,0-3.962c1.589-.011,3.183-.008,4.775-.007q1.557,0,3.117,0-5.985-5.829-11.964-11.664c-.043-.028-.068-.1-.126-.093q-6.048,5.888-12.088,11.782,3.946,0,7.89,0v.1h.006q0,1.982,0,3.962c-1.591.009-3.184.008-4.776.005h-1.558Zm-30,0q5.985,5.829,11.962,11.664c.043.028.07.1.128.093q6.045-5.888,12.087-11.782-3.944,0-7.89,0v-.1h-.005V-76.1c1.589-.011,3.183-.008,4.774-.007q1.558,0,3.116,0-5.982-5.829-11.962-11.664c-.043-.028-.068-.1-.126-.093q-6.048,5.888-12.089,11.782,3.946,0,7.89,0v.1h.007q0,1.982,0,3.962c-1.591.009-3.184.008-4.776.005h-1.559Zm-30,0q5.982,5.829,11.962,11.664c.043.028.068.1.127.093q6.046-5.888,12.087-11.782-3.946,0-7.89,0c0-.035,0-.069,0-.1h-.006q0-1.982,0-3.962c1.589-.011,3.183-.008,4.776-.007q1.558,0,3.116,0-5.983-5.829-11.963-11.664c-.043-.028-.068-.1-.127-.093q-6.045,5.888-12.087,11.782,3.946,0,7.89,0v.1h.006q0,1.982,0,3.962c-1.592.009-3.185.008-4.777.005h-1.558Zm-30,0q5.985,5.829,11.964,11.664c.043.028.068.1.126.093q6.048-5.888,12.089-11.782-3.946,0-7.89,0v-.1h-.006q0-1.982,0-3.962c1.589-.011,3.183-.008,4.774-.007q1.558,0,3.117,0-5.985-5.829-11.962-11.664c-.043-.028-.07-.1-.127-.093q-6.048,5.888-12.087,11.782,3.943,0,7.889,0v.1h.006v3.962c-1.59.009-3.184.008-4.776.005h-1.558Zm267.1-6.458,12.255-12.351q-3.033-3.017-6.066-6.032l.191-.193-.195-.2q3.038-3.016,6.072-6.035-6.141-6.184-12.278-12.372-6.127,6.175-12.255,12.351,3.033,3.017,6.067,6.033l-.191.193.194.2q-3.037,3.017-6.072,6.037Q-4967.836-84.658-4961.7-78.47Zm60,0q6.127-6.176,12.255-12.351-3.033-3.017-6.067-6.032l.191-.193-.194-.2q3.037-3.017,6.071-6.036-6.141-6.184-12.278-12.372l-12.255,12.351q3.034,3.017,6.066,6.032l-.19.192.194.2q-3.038,3.016-6.072,6.036Q-4907.835-84.658-4901.7-78.47Zm-120,0q6.127-6.176,12.255-12.351-3.033-3.017-6.067-6.032l.192-.193-.194-.2q3.037-3.016,6.071-6.035-6.141-6.184-12.278-12.372l-12.255,12.351q3.034,3.017,6.066,6.032l-.19.192.194.2q-3.038,3.016-6.072,6.036Q-5027.835-84.658-5021.7-78.47Zm-120,0,12.255-12.351q-3.033-3.017-6.067-6.032l.192-.193-.194-.2q3.037-3.016,6.071-6.035-6.141-6.184-12.278-12.372l-12.255,12.351q3.034,3.017,6.066,6.032l-.19.192.194.2q-3.038,3.016-6.072,6.036Q-5147.835-84.658-5141.7-78.47Zm210,0,12.254-12.351q-3.033-3.017-6.066-6.032l.192-.193-.194-.2q3.037-3.016,6.07-6.035-6.141-6.184-12.277-12.372-6.128,6.175-12.255,12.351,3.033,3.016,6.067,6.032l-.191.193.193.2q-3.037,3.016-6.071,6.036Q-4937.835-84.658-4931.7-78.47Zm-120,0,12.254-12.352q-3.032-3.017-6.066-6.031l.192-.193-.194-.2q3.037-3.016,6.07-6.035-6.141-6.184-12.277-12.372l-12.255,12.351q3.033,3.016,6.067,6.032l-.191.193.194.2q-3.037,3.016-6.071,6.036Q-5057.835-84.658-5051.7-78.47Zm-120,0,12.254-12.352q-3.032-3.017-6.066-6.031l.192-.193-.194-.2q3.037-3.016,6.07-6.035-6.141-6.184-12.277-12.372l-12.255,12.351q3.033,3.016,6.067,6.032l-.191.193.194.2q-3.037,3.016-6.071,6.036Q-5177.835-84.658-5171.7-78.47Zm90,0,12.254-12.351q-3.033-3.017-6.066-6.032l.191-.193-.195-.2q3.038-3.016,6.072-6.035-6.141-6.184-12.278-12.372-6.127,6.175-12.255,12.351,3.033,3.017,6.067,6.033l-.191.193.194.2q-3.037,3.017-6.071,6.037Q-5087.835-84.658-5081.7-78.47Zm-120,0,12.254-12.351q-3.034-3.017-6.066-6.032l.191-.193-.194-.2q3.037-3.016,6.071-6.035-6.141-6.184-12.278-12.372-6.127,6.175-12.255,12.351,3.033,3.017,6.067,6.033l-.191.193.194.2q-3.037,3.016-6.071,6.036Q-5207.836-84.658-5201.7-78.47Zm210,0,12.255-12.351q-3.034-3.017-6.067-6.032l.191-.193-.194-.2q3.037-3.016,6.072-6.035-6.141-6.184-12.278-12.372-6.127,6.175-12.255,12.351,3.034,3.017,6.068,6.032l-.191.193.194.2q-3.037,3.017-6.072,6.037Q-4997.835-84.658-4991.7-78.47Zm-120,0,12.255-12.351q-3.034-3.017-6.067-6.032l.191-.193-.194-.2q3.037-3.016,6.072-6.035-6.141-6.184-12.278-12.372-6.127,6.175-12.255,12.351,3.034,3.017,6.068,6.032l-.191.193.193.2q-3.037,3.017-6.071,6.037Q-5117.835-84.658-5111.7-78.47Zm224.976-15.375q1.57-1.618,3.142-3.229-1.556-1.6-3.116-3.2-1.567,1.618-3.14,3.23Q-4888.281-95.444-4886.723-93.845Zm-30,0q1.57-1.618,3.142-3.229-1.556-1.6-3.116-3.2-1.567,1.617-3.141,3.23Q-4918.281-95.444-4916.722-93.845Zm-30,0q1.568-1.618,3.142-3.229-1.556-1.6-3.115-3.2-1.57,1.618-3.142,3.23Q-4948.281-95.444-4946.722-93.845Zm-30,0q1.568-1.618,3.141-3.229-1.557-1.6-3.115-3.2-1.57,1.618-3.142,3.23Q-4978.281-95.444-4976.722-93.845Zm-30,0q1.57-1.618,3.142-3.229-1.556-1.6-3.116-3.2-1.567,1.618-3.14,3.23Q-5008.28-95.444-5006.723-93.845Zm-30,0q1.57-1.618,3.142-3.229-1.557-1.6-3.116-3.2-1.567,1.617-3.141,3.23Q-5038.281-95.444-5036.722-93.845Zm-30,0q1.568-1.618,3.142-3.229-1.556-1.6-3.115-3.2-1.57,1.618-3.142,3.23Q-5068.281-95.444-5066.722-93.845Zm-30,0q1.568-1.618,3.141-3.229-1.556-1.6-3.114-3.2-1.57,1.618-3.142,3.23Q-5098.281-95.444-5096.722-93.845Zm-30,0q1.57-1.618,3.142-3.229-1.556-1.6-3.116-3.2-1.567,1.618-3.14,3.23Q-5128.281-95.444-5126.723-93.845Zm-30,0q1.57-1.618,3.142-3.229-1.557-1.6-3.116-3.2-1.567,1.618-3.14,3.23Q-5158.28-95.444-5156.722-93.845Zm-30,0q1.567-1.618,3.142-3.229-1.557-1.6-3.115-3.2-1.569,1.617-3.141,3.23Q-5188.282-95.444-5186.722-93.845Zm-30,0q1.568-1.618,3.141-3.229-1.556-1.6-3.114-3.2-1.57,1.618-3.142,3.23Q-5218.281-95.444-5216.722-93.845Zm317.926-24.166q5.985,5.829,11.962,11.663c.043.029.07.1.127.093q6.048-5.888,12.087-11.781-3.943,0-7.889,0v-.1h-.006V-122.1c1.6-.011,3.212-.009,4.82-.008q1.536,0,3.071,0-5.985-5.829-11.964-11.663c-.043-.029-.068-.1-.126-.093q-6.048,5.886-12.089,11.781,3.946,0,7.89,0v.1h.006q0,1.98,0,3.961c-1.606.009-3.214.008-4.822.007h-1.535Zm-30,0q5.985,5.829,11.963,11.663c.043.029.069.1.127.093q6.045-5.888,12.087-11.781-3.946,0-7.89,0v-.1h-.005V-122.1c1.605-.011,3.213-.009,4.821-.008q1.534,0,3.069,0-5.982-5.829-11.962-11.663c-.043-.029-.068-.1-.126-.093q-6.048,5.886-12.088,11.781,3.946,0,7.89,0v.1h.007q0,1.98,0,3.961c-1.606.009-3.215.008-4.823.007h-1.535Zm-30,0q5.982,5.829,11.962,11.663c.043.029.068.1.126.093q6.048-5.888,12.088-11.781-3.946,0-7.89,0v-.1h-.007q0-1.98,0-3.961c1.6-.011,3.214-.009,4.822-.008q1.534,0,3.07,0-5.985-5.829-11.963-11.663c-.043-.029-.069-.1-.127-.093q-6.045,5.886-12.087,11.781,3.944,0,7.89,0v.1h.005v3.961c-1.606.009-3.214.008-4.822.007h-1.535Zm-30,0q5.985,5.829,11.964,11.663c.043.029.068.1.126.093q6.048-5.888,12.089-11.781-3.946,0-7.89,0v-.1h-.006q0-1.98,0-3.961c1.6-.011,3.213-.009,4.82-.008q1.537,0,3.071,0-5.985-5.829-11.962-11.663c-.043-.029-.07-.1-.127-.093q-6.048,5.886-12.087,11.781,3.943,0,7.889,0v.1h.006q0,1.98,0,3.961c-1.606.009-3.214.008-4.822.007h-1.535Zm-30,0q5.985,5.829,11.962,11.663c.043.029.07.1.127.093q6.048-5.888,12.087-11.781-3.943,0-7.889,0v-.1h-.006q0-1.98,0-3.961c1.6-.011,3.212-.009,4.82-.008q1.536,0,3.071,0-5.985-5.829-11.964-11.663c-.043-.029-.068-.1-.126-.093q-6.048,5.886-12.089,11.781,3.946,0,7.89,0v.1h.006q0,1.98,0,3.961c-1.606.009-3.214.008-4.822.007h-1.535Zm-30,0q5.985,5.829,11.963,11.663c.043.029.069.1.127.093q6.045-5.888,12.087-11.781-3.944,0-7.89,0v-.1h-.005V-122.1c1.6-.011,3.213-.009,4.821-.008q1.534,0,3.069,0-5.982-5.829-11.962-11.663c-.043-.029-.068-.1-.126-.093q-6.048,5.886-12.089,11.781,3.946,0,7.89,0v.1h.007q0,1.98,0,3.961c-1.606.009-3.215.008-4.823.007h-1.535Zm-30,0q5.982,5.829,11.962,11.663c.043.029.068.1.127.093q6.046-5.888,12.087-11.781-3.946,0-7.89,0v-.1h-.007q0-1.98,0-3.961c1.6-.011,3.214-.009,4.822-.008q1.534,0,3.07,0-5.985-5.829-11.963-11.663c-.043-.029-.068-.1-.127-.093q-6.045,5.886-12.087,11.781,3.946,0,7.89,0v.1h.005v3.961c-1.606.009-3.214.008-4.822.007h-1.535Zm-30,0q5.985,5.829,11.964,11.663c.043.029.068.1.126.093q6.048-5.888,12.089-11.781-3.946,0-7.89,0v-.1h-.006q0-1.98,0-3.961c1.6-.011,3.213-.009,4.82-.008q1.536,0,3.071,0-5.985-5.829-11.962-11.663c-.043-.029-.07-.1-.127-.093q-6.048,5.886-12.087,11.781,3.943,0,7.889,0v.1h.006v3.961c-1.606.009-3.214.008-4.822.007h-1.535Zm-30,0q5.984,5.829,11.962,11.663c.044.029.069.1.127.093q6.048-5.888,12.087-11.781-3.943,0-7.889,0v-.1h-.007q0-1.98,0-3.961c1.605-.011,3.213-.009,4.821-.008q1.536,0,3.071,0-5.985-5.829-11.964-11.663c-.043-.029-.068-.1-.126-.093q-6.048,5.886-12.088,11.781,3.946,0,7.89,0v.1h.006q0,1.98,0,3.961c-1.606.009-3.214.008-4.822.007h-1.535Zm-30,0q5.985,5.829,11.962,11.663c.043.029.07.1.128.093q6.045-5.888,12.087-11.781-3.944,0-7.89,0v-.1h-.005V-122.1c1.6-.011,3.213-.009,4.821-.008q1.534,0,3.069,0-5.982-5.829-11.962-11.663c-.043-.029-.068-.1-.126-.093q-6.048,5.886-12.089,11.781,3.946,0,7.89,0v.1h.007q0,1.98,0,3.961c-1.606.009-3.214.008-4.822.007h-1.536Zm-30,0q5.982,5.829,11.962,11.663c.043.029.068.1.127.093q6.046-5.888,12.087-11.781-3.946,0-7.89,0c0-.035,0-.069,0-.1h-.006q0-1.98,0-3.961c1.6-.011,3.214-.009,4.822-.008q1.534,0,3.07,0-5.983-5.829-11.963-11.663c-.043-.029-.068-.1-.127-.093q-6.045,5.886-12.087,11.781,3.946,0,7.89,0v.1h.006q0,1.98,0,3.961c-1.607.009-3.215.008-4.823.007h-1.534Zm-30,0q5.985,5.829,11.964,11.663c.043.029.068.1.126.093q6.048-5.888,12.089-11.781-3.946,0-7.89,0v-.1h-.006q0-1.98,0-3.961c1.6-.011,3.213-.009,4.82-.008q1.536,0,3.071,0-5.985-5.829-11.962-11.663c-.043-.029-.07-.1-.127-.093q-6.048,5.886-12.087,11.781,3.943,0,7.889,0v.1h.006v3.961c-1.606.009-3.214.008-4.822.007h-1.535Zm267.1-6.459,12.255-12.351q-3.034-3.017-6.066-6.032l.19-.192-.194-.2q3.038-3.016,6.072-6.036-6.141-6.184-12.278-12.372-6.127,6.176-12.255,12.351,3.033,3.017,6.067,6.032l-.191.193.194.2q-3.037,3.016-6.071,6.035Q-4967.835-130.658-4961.7-124.47Zm60,0q6.127-6.175,12.255-12.351-3.033-3.017-6.067-6.033l.191-.193-.194-.2q3.037-3.017,6.071-6.037-6.141-6.184-12.278-12.371l-12.254,12.351q3.033,3.017,6.066,6.032l-.191.193.195.2q-3.038,3.016-6.072,6.035Q-4907.835-130.658-4901.7-124.47Zm-120,0q6.127-6.175,12.255-12.351-3.033-3.017-6.068-6.033l.191-.193-.194-.2q3.037-3.017,6.072-6.037-6.141-6.184-12.278-12.372l-12.255,12.351q3.033,3.017,6.066,6.032l-.191.193.195.2q-3.038,3.016-6.072,6.035Q-5027.835-130.658-5021.7-124.47Zm-120,0q6.127-6.175,12.255-12.351-3.033-3.017-6.068-6.033l.191-.193-.194-.2q3.037-3.017,6.072-6.037-6.141-6.184-12.278-12.372l-12.254,12.351q3.033,3.017,6.066,6.032l-.191.193.195.2q-3.038,3.016-6.072,6.035Q-5147.835-130.658-5141.7-124.47Zm210,0,12.255-12.351q-3.033-3.016-6.067-6.032l.191-.193-.194-.2q3.037-3.016,6.071-6.036-6.141-6.184-12.278-12.372l-12.254,12.351q3.033,3.017,6.066,6.032l-.192.193.194.2q-3.037,3.016-6.07,6.035Q-4937.834-130.658-4931.7-124.47Zm-120,0q6.128-6.176,12.255-12.352-3.032-3.016-6.067-6.032l.191-.193-.193-.2q3.037-3.016,6.071-6.036-6.141-6.184-12.278-12.372l-12.254,12.351q3.033,3.017,6.066,6.032l-.192.193.194.2q-3.037,3.016-6.07,6.035Q-5057.834-130.658-5051.7-124.47Zm-120,0q6.128-6.176,12.255-12.352-3.033-3.016-6.067-6.032l.191-.193-.193-.2q3.037-3.016,6.07-6.036-6.141-6.184-12.277-12.372l-12.254,12.351q3.033,3.017,6.066,6.032l-.192.193.194.2q-3.037,3.016-6.07,6.035Q-5177.834-130.658-5171.7-124.47Zm90,0,12.255-12.351q-3.034-3.017-6.066-6.032l.19-.192-.194-.2q3.038-3.016,6.072-6.036-6.141-6.184-12.278-12.372-6.127,6.176-12.255,12.351,3.033,3.017,6.067,6.032l-.191.193.194.2q-3.037,3.017-6.071,6.036Q-5087.835-130.658-5081.7-124.47Zm-120,0,12.255-12.351q-3.034-3.017-6.066-6.032l.191-.193-.194-.2q3.037-3.016,6.071-6.036-6.141-6.184-12.278-12.372-6.127,6.176-12.255,12.351,3.033,3.017,6.067,6.032l-.191.193.194.2q-3.037,3.016-6.071,6.035Q-5207.836-130.658-5201.7-124.47Zm210,0q6.127-6.175,12.255-12.351-3.034-3.017-6.068-6.032l.191-.193-.194-.2q3.037-3.017,6.072-6.037-6.141-6.184-12.278-12.371l-12.255,12.351q3.034,3.017,6.067,6.032l-.192.193.195.2q-3.037,3.016-6.072,6.035Q-4997.835-130.658-4991.7-124.47Zm-120,0q6.128-6.175,12.256-12.351-3.034-3.017-6.068-6.032l.191-.193-.194-.2q3.037-3.017,6.072-6.037-6.141-6.184-12.278-12.371l-12.255,12.351q3.034,3.017,6.067,6.032l-.192.193.194.2q-3.037,3.016-6.071,6.035Q-5117.835-130.658-5111.7-124.47Zm224.976-15.374q1.57-1.618,3.142-3.23-1.556-1.6-3.115-3.2-1.568,1.618-3.141,3.229Q-4888.281-141.445-4886.723-139.845Zm-30,0q1.57-1.618,3.142-3.23-1.556-1.6-3.115-3.2-1.568,1.618-3.142,3.229Q-4918.281-141.446-4916.722-139.845Zm-30,0q1.567-1.617,3.141-3.23-1.556-1.6-3.115-3.2-1.57,1.618-3.142,3.229Q-4948.281-141.445-4946.722-139.845Zm-30,0q1.567-1.618,3.14-3.23-1.556-1.6-3.114-3.2-1.57,1.618-3.142,3.229Q-4978.281-141.445-4976.722-139.845Zm-30,0q1.57-1.618,3.142-3.23-1.556-1.6-3.115-3.2-1.568,1.618-3.141,3.229Q-5008.28-141.445-5006.723-139.845Zm-30,0q1.57-1.618,3.142-3.23-1.556-1.6-3.115-3.2-1.568,1.618-3.142,3.229Q-5038.281-141.446-5036.722-139.845Zm-30,0q1.567-1.617,3.141-3.23-1.556-1.6-3.115-3.2-1.57,1.618-3.142,3.229Q-5068.281-141.445-5066.722-139.845Zm-30,0q1.567-1.618,3.14-3.23-1.556-1.6-3.114-3.2-1.57,1.618-3.142,3.229Q-5098.281-141.445-5096.722-139.845Zm-30,0q1.57-1.618,3.142-3.23-1.556-1.6-3.115-3.2-1.568,1.618-3.141,3.229Q-5128.28-141.445-5126.723-139.845Zm-30,0q1.569-1.618,3.141-3.23-1.556-1.6-3.115-3.2-1.567,1.618-3.141,3.229Q-5158.281-141.445-5156.722-139.845Zm-30,0q1.567-1.617,3.141-3.23-1.556-1.6-3.115-3.2-1.57,1.618-3.142,3.229Q-5188.282-141.446-5186.722-139.845Zm-30,0q1.567-1.618,3.14-3.23-1.556-1.6-3.114-3.2-1.57,1.618-3.142,3.229Q-5218.281-141.445-5216.722-139.845Zm317.926-24.167q5.985,5.829,11.962,11.664c.043.028.07.1.127.093q6.048-5.888,12.087-11.782-3.943,0-7.889,0v-.1h-.006V-168.1c1.589-.011,3.183-.008,4.774-.007q1.558,0,3.117,0-5.985-5.831-11.964-11.664c-.043-.028-.068-.1-.126-.093q-6.048,5.888-12.089,11.782,3.946,0,7.89,0v.1h.006q0,1.982,0,3.962c-1.578.008-3.156.007-4.735.005h-1.578Zm-30,0q5.985,5.829,11.963,11.664c.043.028.069.1.127.093q6.045-5.888,12.087-11.782-3.946,0-7.89,0v-.1h-.005V-168.1c1.589-.011,3.183-.008,4.774-.007q1.558,0,3.116,0-5.982-5.831-11.962-11.664c-.043-.028-.068-.1-.126-.093q-6.048,5.888-12.088,11.782,3.946,0,7.89,0v.1h.007q0,1.982,0,3.962c-1.578.008-3.156.007-4.735.005h-1.579Zm-30,0q5.982,5.829,11.962,11.664c.043.028.068.1.126.093q6.048-5.888,12.088-11.782-3.946,0-7.89,0v-.1h-.007q0-1.982,0-3.962c1.589-.011,3.183-.008,4.776-.007q1.558,0,3.116,0-5.985-5.831-11.963-11.664c-.043-.028-.069-.1-.127-.093q-6.045,5.888-12.087,11.782,3.944,0,7.89,0v.1h.005v3.962c-1.578.008-3.156.007-4.734.005h-1.579Zm-30,0q5.985,5.829,11.964,11.664c.043.028.068.1.126.093q6.048-5.888,12.089-11.782-3.946,0-7.89,0v-.1h-.006q0-1.982,0-3.962c1.589-.011,3.183-.008,4.774-.007q1.558,0,3.117,0-5.985-5.831-11.962-11.664c-.043-.028-.07-.1-.127-.093q-6.048,5.888-12.087,11.782,3.943,0,7.889,0v.1h.006q0,1.982,0,3.962c-1.577.008-3.156.007-4.735.005h-1.578Zm-30,0q5.985,5.829,11.962,11.664c.043.028.07.1.127.093q6.048-5.888,12.087-11.782-3.943,0-7.889,0v-.1h-.006q0-1.982,0-3.962c1.589-.011,3.182-.008,4.774-.007q1.558,0,3.117,0-5.985-5.831-11.964-11.664c-.043-.028-.068-.1-.126-.093q-6.048,5.888-12.089,11.782,3.946,0,7.89,0v.1h.006q0,1.982,0,3.962c-1.578.008-3.156.007-4.735.005h-1.578Zm-30,0q5.985,5.829,11.963,11.664c.043.028.069.1.127.093q6.045-5.888,12.087-11.782-3.944,0-7.89,0v-.1h-.005V-168.1c1.589-.011,3.183-.008,4.774-.007q1.558,0,3.116,0-5.982-5.831-11.962-11.664c-.043-.028-.068-.1-.126-.093q-6.048,5.888-12.089,11.782,3.946,0,7.89,0v.1h.007q0,1.982,0,3.962c-1.578.008-3.156.007-4.735.005h-1.579Zm-30,0q5.982,5.829,11.962,11.664c.043.028.068.1.127.093q6.046-5.888,12.087-11.782-3.946,0-7.89,0v-.1h-.007q0-1.982,0-3.962c1.589-.011,3.183-.008,4.776-.007q1.558,0,3.116,0-5.985-5.831-11.963-11.664c-.043-.028-.068-.1-.127-.093q-6.045,5.888-12.087,11.782,3.946,0,7.89,0v.1h.005v3.962c-1.578.008-3.156.007-4.734.005h-1.579Zm-30,0q5.985,5.829,11.964,11.664c.043.028.068.1.126.093q6.048-5.888,12.089-11.782-3.946,0-7.89,0v-.1h-.006q0-1.982,0-3.962c1.589-.011,3.183-.008,4.774-.007q1.558,0,3.117,0-5.985-5.831-11.962-11.664c-.043-.028-.07-.1-.127-.093q-6.048,5.888-12.087,11.782,3.943,0,7.889,0v.1h.006v3.962c-1.577.008-3.156.007-4.735.005h-1.578Zm-30,0q5.984,5.829,11.962,11.664c.044.028.069.1.127.093q6.048-5.888,12.087-11.782-3.943,0-7.889,0v-.1h-.007q0-1.982,0-3.962c1.589-.011,3.183-.008,4.775-.007q1.557,0,3.117,0-5.985-5.831-11.964-11.664c-.043-.028-.068-.1-.126-.093q-6.048,5.888-12.088,11.782,3.946,0,7.89,0v.1h.006q0,1.982,0,3.962c-1.578.008-3.156.007-4.735.005h-1.578Zm-30,0q5.985,5.829,11.962,11.664c.043.028.07.1.128.093q6.045-5.888,12.087-11.782-3.944,0-7.89,0v-.1h-.005V-168.1c1.589-.011,3.183-.008,4.774-.007q1.558,0,3.116,0-5.982-5.831-11.962-11.664c-.043-.028-.068-.1-.126-.093q-6.048,5.888-12.089,11.782,3.946,0,7.89,0v.1h.007q0,1.982,0,3.962c-1.578.008-3.156.007-4.735.005h-1.578Zm-30,0q5.982,5.829,11.962,11.664c.043.028.068.1.127.093q6.046-5.888,12.087-11.782-3.946,0-7.89,0c0-.035,0-.069,0-.1h-.006q0-1.982,0-3.962c1.589-.011,3.183-.008,4.776-.007q1.558,0,3.116,0-5.983-5.831-11.963-11.664c-.043-.028-.068-.1-.127-.093q-6.045,5.888-12.087,11.782,3.946,0,7.89,0v.1h.006q0,1.982,0,3.962c-1.577.008-3.157.007-4.735.005h-1.579Zm-30,0q5.985,5.829,11.964,11.664c.043.028.068.1.126.093q6.048-5.888,12.089-11.782-3.946,0-7.89,0v-.1h-.006q0-1.982,0-3.962c1.589-.011,3.183-.008,4.774-.007q1.558,0,3.117,0-5.985-5.831-11.962-11.664c-.043-.028-.07-.1-.127-.093q-6.048,5.888-12.087,11.782,3.943,0,7.889,0v.1h.006v3.962c-1.577.008-3.156.007-4.735.005h-1.578Zm338.87-25.127q1.6,1.648,3.2,3.293,1.607-1.656,3.217-3.306l-.005-.026c-1.058-1.052-2.125-2.1-3.184-3.147C-4887.777-191.268-4888.851-190.2-4889.926-189.138Zm-30,0q1.6,1.648,3.2,3.293,1.607-1.656,3.217-3.306l-.005-.026c-1.058-1.052-2.125-2.1-3.184-3.147C-4917.776-191.268-4918.851-190.2-4919.926-189.138Zm-30,0q1.6,1.648,3.2,3.293,1.605-1.656,3.217-3.306l0-.026c-1.059-1.052-2.126-2.1-3.184-3.147C-4947.776-191.268-4948.85-190.2-4949.927-189.138Zm-30,0q1.6,1.648,3.205,3.293,1.605-1.656,3.215-3.306l0-.026c-1.06-1.052-2.127-2.1-3.184-3.147C-4977.776-191.268-4978.851-190.2-4979.927-189.138Zm-30,0q1.6,1.648,3.2,3.293,1.607-1.656,3.217-3.306l-.005-.026c-1.058-1.052-2.125-2.1-3.183-3.147C-5007.777-191.268-5008.851-190.2-5009.926-189.138Zm-30,0q1.6,1.648,3.2,3.293,1.607-1.656,3.217-3.306l-.005-.026c-1.058-1.052-2.126-2.1-3.184-3.147C-5037.776-191.268-5038.851-190.2-5039.926-189.138Zm-30,0q1.6,1.648,3.2,3.293,1.605-1.656,3.217-3.306l-.005-.026c-1.058-1.052-2.125-2.1-3.184-3.147C-5067.776-191.268-5068.85-190.2-5069.927-189.138Zm-30,0q1.6,1.648,3.205,3.293,1.6-1.656,3.215-3.306l0-.026c-1.06-1.052-2.127-2.1-3.184-3.147C-5097.776-191.268-5098.85-190.2-5099.927-189.138Zm-30,0q1.6,1.648,3.2,3.293,1.607-1.656,3.217-3.306l-.005-.026c-1.058-1.052-2.125-2.1-3.183-3.147C-5127.777-191.268-5128.851-190.2-5129.926-189.138Zm-30,0q1.6,1.648,3.2,3.293,1.607-1.656,3.216-3.306l0-.026c-1.059-1.052-2.126-2.1-3.184-3.147C-5157.777-191.268-5158.851-190.2-5159.926-189.138Zm-30,0q1.6,1.648,3.2,3.293,1.605-1.656,3.217-3.306l-.005-.026c-1.058-1.052-2.125-2.1-3.184-3.147C-5187.776-191.268-5188.85-190.2-5189.926-189.138Zm-30,0q1.6,1.648,3.205,3.293,1.6-1.656,3.215-3.306l0-.026c-1.06-1.052-2.127-2.1-3.184-3.147C-5217.776-191.268-5218.85-190.2-5219.927-189.138Z" transform="translate(5312.66 1461.83)"/></g></svg>