<svg xmlns="http://www.w3.org/2000/svg" width="41" height="67.865" viewBox="0 0 41 67.865"><defs><style>.a{fill:#d2e8f7;}.b{fill:none;stroke:#137cda;stroke-linecap:round;stroke-width:3px;}.c{fill:#137cda;}</style></defs><g transform="translate(0 2.095)"><circle class="a" cx="9.5" cy="9.5" r="9.5" transform="translate(11 3.77)"/><ellipse class="a" cx="20.5" cy="20" rx="20.5" ry="20" transform="translate(0 25.77)"/><path class="b" d="M17.4,5.284A9.362,9.362,0,0,1,9.5,9.5,9.671,9.671,0,0,1,3.47,7.341,9.33,9.33,0,0,1,0,0" transform="matrix(-0.809, 0.588, -0.588, -0.809, 28.186, 7.686)"/><g transform="translate(5 26.848)"><g transform="translate(0)"><path class="c" d="M205.8,311.261q3.3-3.278,6.6-6.56c.068.043.117.121.184.171q3.207,3.183,6.409,6.371l-4.66,4.7q7.011,7.061,14.017,14.126H215.539q0-1.484,0-2.968c1.969-.011,3.942,0,5.912-.005q-4.483-4.367-8.963-8.738c-.033-.021-.051-.075-.1-.07q-4.53,4.411-9.056,8.827,2.955,0,5.911,0,0,1.484,0,2.968h-12.8q7.008-7.058,14.011-14.119C208.908,314.392,207.348,312.832,205.8,311.261Zm4.186.079q1.2,1.234,2.4,2.467,1.2-1.241,2.409-2.477l0-.02c-.793-.788-1.593-1.569-2.385-2.358C211.6,309.744,210.792,310.543,209.986,311.34Z" transform="translate(-196.445 -304.701)"/></g></g></g></svg>