<svg xmlns="http://www.w3.org/2000/svg" xmlns:xlink="http://www.w3.org/1999/xlink" width="1134" height="338" viewBox="0 0 1134 338"><defs><style>.a{fill:#ff6e14;}.b{clip-path:url(#a);}.c{fill:#fd6e29;}.d{fill:#fff;fill-rule:evenodd;opacity:0.2;}</style><clipPath id="a"><rect class="a" width="1134" height="338" rx="46" transform="translate(153)"/></clipPath></defs><g transform="translate(-73 -5658)"><g class="b" transform="translate(-80 5658)"><rect class="c" width="1280" height="338" transform="translate(80)"/><path class="d" d="M1486,1163c327.5,0,593-265.495,593-593S1813.5-23,1486-23,893,242.495,893,570,1158.5,1163,1486,1163Zm0-200c-217.05,0-393-175.952-393-393s175.95-393,393-393,393,175.952,393,393S1703.05,963,1486,963Z"/><path class="d" d="M-19,368c327.505,0,593-265.5,593-593S308.505-818-19-818-612-552.505-612-225-346.505,368-19,368Zm0-200C-236.048,168-412-7.952-412-225S-236.048-618-19-618,374-442.048,374-225,198.048,168-19,168Z"/></g></g></svg>